<svg width="24" height="24" viewBox="0 0 24 24" fill="none" xmlns="http://www.w3.org/2000/svg">
<path d="M4.98304 7.19701C6.19144 7.19701 7.17104 6.21741 7.17104 5.00901C7.17104 3.80062 6.19144 2.82101 4.98304 2.82101C3.77464 2.82101 2.79504 3.80062 2.79504 5.00901C2.79504 6.21741 3.77464 7.19701 4.98304 7.19701Z" fill="white"/>
<path d="M9.23697 8.85499V20.994H13.006V14.991C13.006 13.407 13.304 11.873 15.268 11.873C17.205 11.873 17.229 13.684 17.229 15.091V20.995H21V14.338C21 11.068 20.296 8.55499 16.474 8.55499C14.639 8.55499 13.409 9.56199 12.906 10.515H12.855V8.85499H9.23697V8.85499ZM3.09497 8.85499H6.86997V20.994H3.09497V8.85499Z" fill="white"/>
</svg>
